<?xml version="1.0" encoding="iso-8859-1"?>
<!-- Generator: Adobe Illustrator 19.0.0, SVG Export Plug-In . SVG Version: 6.00 Build 0)  -->
<svg version="1.1" id="Capa_1" xmlns="http://www.w3.org/2000/svg" xmlns:xlink="http://www.w3.org/1999/xlink" x="0px" y="0px"
	 viewBox="0 0 512 512" style="enable-background:new 0 0 512 512;" xml:space="preserve">
<g>
	<g>
		<g>
			<path d="M503.467,375.467h-25.6v-281.6c-0.015-14.132-11.468-25.585-25.6-25.6H59.733c-14.132,0.015-25.585,11.468-25.6,25.6
				v281.6h-25.6C3.82,375.467,0,379.287,0,384v25.6c0.022,18.842,15.291,34.112,34.133,34.133h443.733
				c18.842-0.022,34.112-15.291,34.133-34.133V384C512,379.287,508.18,375.467,503.467,375.467z M51.2,93.867
				c0.006-4.71,3.823-8.527,8.533-8.533h392.533c4.71,0.006,8.527,3.823,8.533,8.533v281.6H51.2V93.867z M315.733,392.533
				c-0.006,4.71-3.823,8.527-8.533,8.533H204.8c-4.71-0.006-8.527-3.823-8.533-8.533H315.733z M494.933,409.6
				c-0.009,9.422-7.645,17.057-17.067,17.067H34.133c-9.422-0.009-17.057-7.645-17.067-17.067v-17.067H179.2
				c0.015,14.132,11.468,25.585,25.6,25.6h102.4c14.132-0.015,25.585-11.468,25.6-25.6h162.133V409.6z"/>
			<path d="M435.2,102.4H76.8c-4.713,0-8.533,3.82-8.533,8.533v238.933c0,4.713,3.82,8.533,8.533,8.533h358.4
				c4.713,0,8.533-3.82,8.533-8.533V110.933C443.733,106.221,439.913,102.4,435.2,102.4z M426.667,341.333H85.333V119.467h174.932
				c0.343,1.433,1.059,2.75,2.077,3.817l12.55,12.55c-3.345,6.103-6.03,12.545-8.008,19.217h-17.708
				c-4.157,0-7.709,2.995-8.412,7.092c-2.439,14.112-2.439,28.538,0,42.65c0.703,4.097,4.256,7.091,8.412,7.092h17.708
				c1.978,6.672,4.663,13.114,8.008,19.217l-12.55,12.55c-2.933,2.932-3.334,7.548-0.95,10.942
				c8.231,11.718,18.432,21.919,30.15,30.15c3.393,2.384,8.01,1.983,10.942-0.95l12.55-12.55c6.103,3.345,12.545,6.03,19.217,8.008
				v17.708c0,4.157,2.995,7.709,7.092,8.412c14.112,2.439,28.538,2.439,42.65,0c4.097-0.703,7.091-4.256,7.092-8.412V279.25
				c6.672-1.978,13.114-4.663,19.217-8.008l12.55,12.55c1.065,1.019,2.382,1.736,3.816,2.076V341.333z M426.667,263.471
				l-8.983-8.983c-2.832-2.842-7.264-3.321-10.638-1.15c-8.056,5.187-16.97,8.902-26.325,10.971
				c-3.915,0.857-6.705,4.325-6.704,8.333v16.888c-7.546,0.8-15.155,0.8-22.7,0v-16.888c0.001-4.008-2.789-7.476-6.704-8.333
				c-9.356-2.069-18.269-5.784-26.325-10.971c-3.374-2.17-7.805-1.691-10.638,1.15l-11.992,11.996
				c-5.89-4.752-11.256-10.119-16.009-16.009l11.996-11.992c2.838-2.834,3.317-7.263,1.15-10.638
				c-5.187-8.056-8.902-16.97-10.971-26.325c-0.857-3.915-4.325-6.705-8.333-6.704h-16.887c-0.806-7.545-0.806-15.155,0-22.7h16.887
				c4.008,0.001,7.476-2.789,8.333-6.704c2.069-9.356,5.784-18.269,10.971-26.325c2.167-3.375,1.688-7.804-1.15-10.637l-8.983-8.983
				h144.004V263.471z"/>
			<path d="M247.467,273.067h-9.745c-0.796-3.054-2.016-5.981-3.625-8.696l6.908-6.908c3.332-3.332,3.332-8.734,0-12.067
				c-3.332-3.332-8.734-3.332-12.067,0l-6.908,6.908c-2.715-1.609-5.643-2.829-8.697-3.625v-9.745c0-4.713-3.821-8.533-8.533-8.533
				s-8.533,3.82-8.533,8.533v9.745c-3.054,0.796-5.981,2.016-8.696,3.625l-6.908-6.908c-3.332-3.332-8.735-3.332-12.067,0
				c-3.332,3.332-3.332,8.734,0,12.067l6.908,6.908c-1.609,2.715-2.829,5.643-3.625,8.697h-9.745c-4.713,0-8.533,3.821-8.533,8.533
				c0,4.713,3.82,8.533,8.533,8.533h9.745c0.796,3.054,2.016,5.981,3.625,8.696l-6.908,6.908c-2.155,2.156-2.997,5.297-2.208,8.242
				c0.789,2.944,3.089,5.244,6.033,6.033c2.944,0.789,6.086-0.053,8.242-2.208l6.908-6.908c2.715,1.609,5.643,2.829,8.697,3.625
				v9.745c0,4.713,3.82,8.533,8.533,8.533s8.533-3.82,8.533-8.533v-9.745c3.054-0.796,5.981-2.016,8.696-3.625l6.908,6.908
				c3.332,3.332,8.734,3.332,12.067,0c3.332-3.332,3.332-8.734,0-12.067l-6.908-6.908c1.609-2.715,2.829-5.643,3.625-8.697h9.745
				c4.713,0,8.533-3.821,8.533-8.533C256,276.887,252.18,273.067,247.467,273.067z M204.8,298.667
				c-9.426,0-17.067-7.641-17.067-17.067c0-9.426,7.641-17.067,17.067-17.067c9.426,0,17.067,7.641,17.067,17.067
				C221.857,291.022,214.222,298.657,204.8,298.667z"/>
			<path d="M161.096,200.838L161.096,200.838l4.631-4.631c1.579,0.835,3.233,1.52,4.94,2.046v6.547c0,4.713,3.82,8.533,8.533,8.533
				s8.533-3.82,8.533-8.533v-6.547c1.707-0.527,3.361-1.211,4.94-2.046l4.631,4.631c3.332,3.332,8.735,3.332,12.067,0
				c3.332-3.332,3.332-8.735,0-12.067l-4.63-4.63c0.834-1.58,1.519-3.234,2.045-4.941h6.547c4.713,0,8.533-3.82,8.533-8.533
				s-3.821-8.533-8.533-8.533h-6.547c-0.526-1.707-1.211-3.361-2.045-4.941l4.63-4.63c3.332-3.332,3.332-8.734,0-12.067
				c-3.332-3.332-8.734-3.332-12.067,0l-4.632,4.632c-1.579-0.834-3.233-1.518-4.939-2.044v-6.55c0-4.713-3.82-8.533-8.533-8.533
				s-8.533,3.82-8.533,8.533v6.549c-1.707,0.526-3.36,1.211-4.94,2.045l-4.631-4.631c-3.332-3.332-8.735-3.332-12.067,0
				c-3.332,3.332-3.332,8.735,0,12.067l4.63,4.63c-0.834,1.58-1.519,3.234-2.045,4.941h-6.548c-4.713,0-8.533,3.82-8.533,8.533
				s3.82,8.533,8.533,8.533h6.549c0.526,1.707,1.211,3.36,2.045,4.94l-4.631,4.631c-2.156,2.156-2.997,5.297-2.208,8.242
				c0.789,2.944,3.089,5.244,6.033,6.033C155.799,203.835,158.94,202.993,161.096,200.838z M170.769,162.224
				c4.66-4.662,12.217-4.666,16.882-0.007c4.654,4.67,4.654,12.226,0,16.896c-4.664,4.658-12.221,4.655-16.881-0.007
				C166.108,174.443,166.108,166.886,170.769,162.224z"/>
			<path d="M362.667,238.933c30.633,0,55.467-24.833,55.467-55.467S393.3,128,362.667,128S307.2,152.833,307.2,183.467
				C307.235,214.085,332.048,238.898,362.667,238.933z M362.667,145.067c21.208,0,38.4,17.192,38.4,38.4
				c0,21.208-17.192,38.4-38.4,38.4s-38.4-17.192-38.4-38.4C324.29,162.268,341.469,145.09,362.667,145.067z"/>
		</g>
	</g>
</g>
<g>
</g>
<g>
</g>
<g>
</g>
<g>
</g>
<g>
</g>
<g>
</g>
<g>
</g>
<g>
</g>
<g>
</g>
<g>
</g>
<g>
</g>
<g>
</g>
<g>
</g>
<g>
</g>
<g>
</g>
</svg>
